<?xml version="1.0" standalone="no"?>
<!DOCTYPE svg PUBLIC "-//W3C//DTD SVG 20010904//EN"
 "http://www.w3.org/TR/2001/REC-SVG-20010904/DTD/svg10.dtd">
<svg version="1.0" xmlns="http://www.w3.org/2000/svg"
 width="512.000000pt" height="512.000000pt" viewBox="0 0 512.000000 512.000000"
 preserveAspectRatio="xMidYMid meet">
<metadata>
Created by potrace 1.14, written by Peter Selinger 2001-2017
</metadata>
<g transform="translate(0.000000,512.000000) scale(0.100000,-0.100000)"
fill="#000000" stroke="none">
<path d="M1093 5111 c-105 -27 -205 -118 -243 -221 -9 -27 -14 -193 -17 -705
l-4 -670 -34 -70 c-86 -179 -144 -374 -161 -543 -6 -69 -8 -73 -28 -68 -18 5
-55 14 -216 51 -8 2 -55 13 -105 25 -116 29 -163 29 -209 0 -61 -37 -86 -106
-66 -181 20 -72 62 -98 220 -134 119 -27 404 -96 406 -98 1 -1 9 -40 18 -87
22 -113 58 -231 101 -331 20 -45 34 -83 32 -85 -3 -3 -252 -57 -312 -68 -112
-19 -142 -36 -173 -96 -42 -80 -10 -180 68 -215 55 -24 78 -23 255 16 50 11
106 22 125 25 19 2 50 9 70 14 34 9 65 15 125 25 27 5 36 -1 95 -71 36 -42 93
-103 128 -135 l62 -58 -34 -53 c-118 -186 -211 -456 -232 -678 -12 -130 -10
-551 3 -588 15 -43 49 -81 90 -98 49 -21 2971 -21 3011 0 38 20 72 59 85 98
13 37 15 469 3 593 -22 218 -115 489 -231 671 l-33 51 75 74 c41 41 97 102
126 137 50 61 51 62 91 56 22 -3 43 -7 46 -9 3 -2 25 -6 50 -10 25 -4 47 -8
50 -10 3 -2 21 -6 40 -9 19 -3 44 -8 55 -10 40 -9 171 -35 205 -42 87 -16 157
14 190 81 26 53 25 90 -2 145 -30 58 -60 74 -188 100 -58 12 -109 23 -115 24
-5 2 -32 7 -60 11 -58 10 -51 9 -93 19 -18 4 -32 11 -30 14 58 127 127 344
143 456 l7 45 112 26 c417 98 444 105 476 138 28 29 50 80 50 119 0 35 -32 96
-62 118 -53 39 -91 42 -208 14 -58 -14 -112 -27 -120 -29 -8 -2 -55 -13 -105
-24 -49 -12 -99 -23 -111 -26 -19 -4 -22 1 -27 58 -16 168 -72 362 -158 543
l-38 80 -4 670 c-5 708 -4 698 -53 774 -85 135 -263 194 -407 136 -31 -13
-125 -76 -213 -143 -696 -526 -661 -502 -702 -493 -157 35 -547 35 -704 0 -40
-8 -40 -8 -720 507 -75 57 -157 113 -183 124 -51 23 -161 33 -212 20z"/>
</g>
</svg>
